<?xml version="1.0" encoding="UTF-8" standalone="no"?><!DOCTYPE svg PUBLIC "-//W3C//DTD SVG 1.1//EN" "http://www.w3.org/Graphics/SVG/1.1/DTD/svg11.dtd"><svg width="100%" height="100%" viewBox="0 0 2481 3508" version="1.1" xmlns="http://www.w3.org/2000/svg" xmlns:xlink="http://www.w3.org/1999/xlink" xml:space="preserve" xmlns:serif="http://www.serif.com/" style="fill-rule:evenodd;clip-rule:evenodd;stroke-linejoin:round;stroke-miterlimit:2;"><g><g><path d="M631.549,1562.64l147.275,17.748l61.126,6.757l0,-253.438l-40.066,-8.517l-168.335,-0l-15.286,62.614l15.286,174.836Z" style="fill:#ff6361;"/></g><g><path d="M849.997,1333.7l60.897,24.101l15.45,113.755l-9.322,136.034l-30.371,-5.749l-28.809,-9.197l-4.364,-99.75l-3.481,-107.884l0,-51.31Z" style="fill:#ff6361;"/></g><g><path d="M653.504,1312.16l-15.855,-125.81l15.855,-61.776l79.626,9.073l74.971,0l-0,91.838l-5.829,86.675l-38.968,-2.637l-109.8,2.637Z" style="fill:#ff6361;"/></g><g><path d="M821.074,1133.8l-5.24,157.232l-0,23.099l39.567,7.449l8.976,4.36l5.428,-46.536l-11.963,-139.508l-36.768,-6.096Z" style="fill:#ff6361;"/></g><g><path d="M677.216,1111.85l50.89,12.725l20.1,-3.035l-0,-136.212l-7.365,-76.789l-44.023,5.155l-10.415,62.087l-9.187,136.069Z" style="fill:#ff6361;"/></g><g><path d="M753.384,908.54l86.565,22.524l2.87,114.345l-1.249,84.166l-82.344,-8.892l0,-132.84l-5.842,-79.303Z" style="fill:#ff6361;"/></g><g><path d="M577.904,1931.91l98.089,2.105l85.644,-5.257l-0,-150.986l17.187,-175.924l-102.831,-21.46l-98.089,6.14l7.133,205.425l-7.133,139.957Z" style="fill:#ff6361;"/></g><g><path d="M792.932,1601.85l120.937,14.989l36.061,16.131l-0,310.467l-125.533,-0l-45.573,-9.42l-0,-154.154l14.108,-178.013Z" style="fill:#ff6361;"/></g><g><path d="M879.844,2397.83l-29.847,284.652l-12.448,207.383l-0,208.876l-61.468,-8.914l-392.826,-100.282l-0,-307.063l14.015,-187.463l-14.015,-98.128l148.021,5.919l233.312,0l115.256,-4.98Z" style="fill:#ff6361;"/></g><g><path d="M1117.38,2369.83l-211.261,27.055l-33.596,354.414l-14.681,138.019l0,216.394l207.052,-83.115l73.171,-28.992l-20.685,-242.306l7.081,-138.85l-7.081,-242.619Z" style="fill:#ff6361;"/></g><g><path d="M476.024,1947.07l285.613,-3.633l61.157,26.382l-16.84,221.398l4.018,198.229l-48.335,-0l-130.088,-2.322l-98.833,0l-63.593,-4.92l6.901,-179.077l-6.901,-173.051l-8.429,-70.11l15.33,-12.896Z" style="fill:#ff6361;"/></g><g><path d="M842.819,1973.01l155.134,0l35.537,22.496l9.328,184.287l5.949,144.575l-0,31.699l-57.638,6.785l-102.958,12.98l-63.774,6.352l-1.603,-26.117l0,-164.449l20.025,-218.608Z" style="fill:#ff6361;"/></g></g><g><g><path d="M1172.83,2843.91l57.909,0c8.749,0 16.56,2.049 23.434,6.145c6.874,4.097 12.255,9.617 16.144,16.561c3.888,6.943 5.832,14.581 5.832,22.913c0,8.332 -1.909,16.04 -5.728,23.122c-3.819,7.082 -9.2,12.741 -16.144,16.977c-6.943,4.235 -14.789,6.353 -23.538,6.353l-40.203,-0l0,53.742l-17.706,0l0,-145.813Zm58.117,75.407c5.694,-0 10.589,-1.354 14.686,-4.062c4.096,-2.708 7.221,-6.319 9.373,-10.832c2.153,-4.513 3.229,-9.478 3.229,-14.894c0,-5.277 -1.215,-10.103 -3.645,-14.477c-2.43,-4.374 -5.729,-7.881 -9.895,-10.519c-4.166,-2.639 -8.748,-3.958 -13.748,-3.958l-40.411,-0l0,58.742l40.411,-0Z" style="fill-rule:nonzero;stroke:#000;stroke-width:3.75px;"/><path d="M1350.1,2993.06c-9.998,0 -19.233,-2.499 -27.704,-7.499c-8.471,-4.999 -15.172,-11.734 -20.101,-20.205c-4.93,-8.471 -7.395,-17.775 -7.395,-27.913c-0,-9.998 2.465,-19.233 7.395,-27.704c4.929,-8.471 11.63,-15.172 20.101,-20.102c8.471,-4.93 17.706,-7.395 27.704,-7.395c10.138,0 19.442,2.465 27.913,7.395c8.471,4.93 15.206,11.631 20.206,20.102c4.999,8.471 7.499,17.706 7.499,27.704c-0,10.138 -2.5,19.442 -7.499,27.913c-5,8.471 -11.735,15.206 -20.206,20.205c-8.471,5 -17.775,7.499 -27.913,7.499Zm-0.208,-16.664c7.221,0 13.818,-1.736 19.789,-5.208c5.971,-3.471 10.693,-8.193 14.165,-14.164c3.471,-5.972 5.207,-12.499 5.207,-19.581c0,-6.943 -1.736,-13.366 -5.207,-19.268c-3.472,-5.902 -8.194,-10.589 -14.165,-14.061c-5.971,-3.471 -12.568,-5.207 -19.789,-5.207c-6.943,-0 -13.366,1.736 -19.268,5.207c-5.902,3.472 -10.554,8.159 -13.956,14.061c-3.403,5.902 -5.104,12.325 -5.104,19.268c0,7.082 1.701,13.609 5.104,19.581c3.402,5.971 8.054,10.693 13.956,14.164c5.902,3.472 12.325,5.208 19.268,5.208Z" style="fill-rule:nonzero;stroke:#000;stroke-width:3.75px;"/><path d="M1443.63,2993.06c-5.277,-0.555 -9.27,-2.916 -11.978,-7.082c-2.707,-4.166 -3.923,-9.027 -3.645,-14.581l4.583,-69.574l-14.373,0l-0,-16.248l15.414,0l4.166,-62.491l17.915,0l-3.958,62.491l15.623,0l-0,16.248l-16.665,0l-4.166,64.574c-0.277,3.194 0.104,5.52 1.146,6.979c1.041,1.458 2.812,2.187 5.312,2.187c3.055,-0 6.527,-0.903 10.415,-2.708l0.833,-0l-1.25,16.872c-2.499,1.25 -5.45,2.222 -8.853,2.917c-3.402,0.694 -6.908,0.833 -10.519,0.416Z" style="fill-rule:nonzero;stroke:#000;stroke-width:3.75px;"/><path d="M1524.24,2993.06c-13.609,0 -25.483,-3.055 -35.62,-9.165l-0,-20.83l0.625,0.624c5.138,4.028 10.137,7.152 14.998,9.374c4.86,2.222 11.526,3.333 19.997,3.333c7.221,0 13.262,-1.25 18.122,-3.749c4.861,-2.5 7.291,-5.972 7.291,-10.416c-0,-2.638 -1.25,-5.034 -3.75,-7.186c-2.499,-2.153 -6.11,-4.27 -10.831,-6.353l-5.833,-2.292l-17.914,-6.666c-5.694,-2.083 -10.276,-4.166 -13.748,-6.249c-3.472,-2.083 -6.249,-4.825 -8.332,-8.228c-2.083,-3.402 -3.125,-7.742 -3.125,-13.019c0,-5.832 1.84,-11.005 5.52,-15.518c3.68,-4.514 8.506,-8.02 14.477,-10.52c5.972,-2.499 12.36,-3.749 19.164,-3.749c10.415,-0 21.039,2.361 31.871,7.082l-0,19.581c-3.333,-2.639 -7.812,-4.965 -13.436,-6.978c-5.624,-2.014 -11.769,-3.021 -18.435,-3.021c-6.943,0 -12.255,1.146 -15.935,3.437c-3.68,2.291 -5.52,5.52 -5.52,9.686c-0,2.361 1.284,4.583 3.854,6.666c2.569,2.083 5.936,3.888 10.102,5.416l16.456,6.041l1.042,0.416c6.943,2.5 12.533,4.826 16.768,6.979c4.236,2.152 7.846,5.034 10.832,8.644c2.986,3.611 4.479,8.193 4.479,13.748c-0,7.083 -2.222,13.089 -6.666,18.019c-4.444,4.929 -9.964,8.644 -16.56,11.144c-6.597,2.5 -13.228,3.749 -19.893,3.749Z" style="fill-rule:nonzero;stroke:#000;stroke-width:3.75px;"/><path d="M1631.31,2989.73c-9.026,0 -16.942,-1.944 -23.747,-5.832c-6.804,-3.888 -12.081,-9.374 -15.831,-16.456c-3.749,-7.082 -5.624,-15.276 -5.624,-24.58c0,-10.832 2.569,-20.622 7.707,-29.371c5.139,-8.749 12.221,-15.588 21.247,-20.518c9.027,-4.93 19.164,-7.395 30.413,-7.395l19.789,0l2.291,-62.491l16.664,0l-5.624,149.771l10.832,-0l0,16.872l-58.117,0Zm30.621,-16.872l2.708,-70.615l-20.831,-0c-7.776,-0 -14.685,1.701 -20.726,5.103c-6.041,3.402 -10.762,8.193 -14.165,14.373c-3.402,6.18 -5.103,13.227 -5.103,21.143c-0,9.582 2.43,17.012 7.291,22.289c4.86,5.277 11.595,7.915 20.205,7.915l30.621,-0.208Z" style="fill-rule:nonzero;stroke:#000;stroke-width:3.75px;"/><path d="M1744.84,2993.06c-5.555,0 -10.728,-1.388 -15.519,-4.166c-4.791,-2.777 -8.644,-6.665 -11.561,-11.665c-2.916,-4.999 -4.374,-10.693 -4.374,-17.081c0,-5.971 1.736,-11.63 5.208,-16.977c3.471,-5.346 7.95,-9.651 13.435,-12.914c5.486,-3.264 11.006,-4.896 16.56,-4.896l30.621,0c-0.139,-7.776 -2.256,-14.095 -6.353,-18.955c-4.097,-4.861 -10.311,-7.291 -18.643,-7.291c-12.221,0 -22.081,4.097 -29.58,12.29l-1.666,0l-5.416,-16.456c4.999,-4.166 10.658,-7.325 16.977,-9.478c6.318,-2.152 12.394,-3.229 18.227,-3.229c9.165,0 17.08,1.806 23.746,5.416c6.666,3.611 11.665,8.541 14.998,14.79c3.333,6.249 4.722,13.331 4.166,21.247l-3.958,66.032l-17.705,0l0.833,-10.831l-1.25,-0c-3.611,4.443 -7.673,7.915 -12.186,10.415c-4.513,2.5 -10.033,3.749 -16.56,3.749Zm3.958,-16.664c4.582,0 9.235,-1.18 13.956,-3.541c4.722,-2.361 9.235,-6.041 13.54,-11.04l1.875,-20.831l-27.497,0c-5.693,0 -10.345,1.632 -13.956,4.895c-3.611,3.264 -5.416,7.326 -5.416,12.186c0,5.277 1.458,9.652 4.375,13.123c2.916,3.472 7.29,5.208 13.123,5.208Z" style="fill-rule:nonzero;stroke:#000;stroke-width:3.75px;"/><path d="M1827.95,2885.58l17.706,0l0,14.373l1.667,0c5.277,-5.971 10.033,-10.415 14.268,-13.331c4.236,-2.916 9.409,-4.375 15.519,-4.375c12.082,0 21.455,5.902 28.121,17.706l1.875,0c5.277,-5.832 10.623,-10.241 16.039,-13.227c5.416,-2.986 11.527,-4.479 18.331,-4.479c6.527,0 12.498,1.841 17.914,5.521c5.416,3.68 9.582,8.679 12.499,14.997c2.916,6.319 4.096,13.297 3.541,20.935l-4.791,66.032l-17.706,0l3.958,-58.325c0.694,-9.304 -0.521,-16.907 -3.646,-22.809c-3.124,-5.902 -8.367,-8.853 -15.727,-8.853c-4.582,0 -8.957,1.389 -13.123,4.166c-4.166,2.778 -8.957,7.152 -14.373,13.123l0,72.698l-18.122,0l-0.209,-65.824c0,-7.776 -1.492,-13.852 -4.478,-18.226c-2.986,-4.375 -7.464,-6.562 -13.436,-6.562c-4.582,0 -8.992,1.805 -13.227,5.416c-4.236,3.611 -9.2,9.235 -14.894,16.873l0,68.323l-17.706,0l0,-104.152Z" style="fill-rule:nonzero;stroke:#000;stroke-width:3.75px;"/></g><g><path d="M1155.67,2371.86l31.663,0l36.661,129.149l0.208,-0l36.662,-129.149l31.662,0l0,145.813l-17.706,0l0,-129.149l-0.208,0l-36.661,129.149l-27.705,0l-36.661,-129.149l-0.209,0l0,129.149l-17.706,0l0,-145.813Z" style="fill-rule:nonzero;stroke:#000;stroke-width:3.96px;"/><path d="M1375.84,2521.01c-9.999,-0 -19.233,-2.5 -27.705,-7.499c-8.471,-4.999 -15.171,-11.734 -20.101,-20.205c-4.93,-8.472 -7.395,-17.776 -7.395,-27.913c0,-9.999 2.465,-19.234 7.395,-27.705c4.93,-8.471 11.63,-15.171 20.101,-20.101c8.472,-4.93 17.706,-7.395 27.705,-7.395c10.137,0 19.442,2.465 27.913,7.395c8.471,4.93 15.206,11.63 20.205,20.101c5,8.471 7.499,17.706 7.499,27.705c0,10.137 -2.499,19.441 -7.499,27.913c-4.999,8.471 -11.734,15.206 -20.205,20.205c-8.471,4.999 -17.776,7.499 -27.913,7.499Zm-0.208,-16.664c7.221,-0 13.817,-1.736 19.789,-5.208c5.971,-3.472 10.693,-8.193 14.164,-14.165c3.472,-5.971 5.208,-12.498 5.208,-19.58c-0,-6.944 -1.736,-13.366 -5.208,-19.268c-3.471,-5.902 -8.193,-10.589 -14.164,-14.061c-5.972,-3.472 -12.568,-5.208 -19.789,-5.208c-6.944,0 -13.367,1.736 -19.268,5.208c-5.902,3.472 -10.555,8.159 -13.957,14.061c-3.402,5.902 -5.103,12.324 -5.103,19.268c-0,7.082 1.701,13.609 5.103,19.58c3.402,5.972 8.055,10.693 13.957,14.165c5.901,3.472 12.324,5.208 19.268,5.208Z" style="fill-rule:nonzero;stroke:#000;stroke-width:3.96px;"/><path d="M1459.58,2413.52l17.706,-0l0,14.373l1.667,-0c4.999,-5.555 10.519,-9.894 16.56,-13.019c6.041,-3.125 12.047,-4.687 18.018,-4.687c10.832,0 19.511,4.027 26.038,12.082c6.527,8.054 9.79,18.678 9.79,31.87c0,10.693 -0.729,21.247 -2.187,31.663c-1.458,10.415 -3.506,21.038 -6.145,31.87l-18.955,0c3.749,-11.248 6.283,-21.941 7.603,-32.079c1.319,-10.137 1.979,-20.622 1.979,-31.454c-0,-7.776 -1.736,-14.164 -5.208,-19.164c-3.472,-4.999 -8.61,-7.499 -15.415,-7.499c-6.388,0 -11.977,1.702 -16.768,5.104c-4.791,3.402 -10.45,8.783 -16.977,16.143l0,68.949l-17.706,0l0,-104.152Z" style="fill-rule:nonzero;stroke:#000;stroke-width:3.96px;"/><path d="M1596.65,2521.01c-5.138,-0.556 -8.887,-2.847 -11.248,-6.874c-2.361,-4.027 -3.541,-8.957 -3.541,-14.79l-0,-69.573l-11.665,-0l-0,-16.248l11.665,-0l-0,-62.491l17.706,-0l-0,62.491l20.83,-0l0,16.248l-20.83,-0l-0,64.574c-0,3.333 0.486,5.798 1.458,7.395c0.972,1.597 2.638,2.395 4.999,2.395c1.528,0 3.055,-0.277 4.583,-0.833c1.527,-0.555 2.986,-1.18 4.374,-1.875l1.458,-0.625l0.834,0l-0,16.873c-2.778,1.25 -6.007,2.222 -9.687,2.916c-3.68,0.695 -7.325,0.834 -10.936,0.417Z" style="fill-rule:nonzero;stroke:#000;stroke-width:3.96px;"/><path d="M1693.09,2521.01c-10.831,-0 -20.413,-3.09 -28.746,-9.27c-8.332,-6.179 -14.511,-14.754 -18.539,-25.725l-11.456,2.916l-3.542,-16.248l11.041,-2.916c-1.25,-9.582 -0.521,-18.47 2.187,-26.663c2.708,-8.193 7.117,-15.067 13.227,-20.622c6.11,-5.555 13.47,-9.235 22.08,-11.04c8.61,-1.944 17.081,-1.771 25.413,0.521c8.333,2.291 15.588,7.533 21.768,15.727c6.18,8.193 9.964,19.719 11.353,34.578l-73.948,18.956c2.777,7.36 6.596,13.054 11.456,17.081c4.861,4.027 10.763,6.041 17.706,6.041c7.36,-0 14.234,-1.285 20.622,-3.854c6.388,-2.569 12.915,-6.076 19.581,-10.519l4.583,16.664l-2.708,1.458c-6.805,3.888 -13.366,7.013 -19.685,9.374c-6.319,2.361 -13.783,3.541 -22.393,3.541Zm23.955,-70.615c-2.083,-8.471 -6.179,-14.859 -12.29,-19.164c-6.11,-4.305 -13.401,-5.486 -21.872,-3.541c-5.971,1.388 -10.797,3.888 -14.477,7.499c-3.68,3.61 -6.179,7.985 -7.499,13.123c-1.319,5.138 -1.631,10.762 -0.937,16.872l57.075,-14.789Z" style="fill-rule:nonzero;stroke:#000;stroke-width:3.96px;"/><path d="M1790.58,2521.01c-8.332,-0 -16.005,-1.701 -23.018,-5.103c-7.013,-3.403 -12.741,-7.395 -17.185,-11.978l11.873,-14.373l0.834,1.042c2.916,3.471 6.978,6.631 12.185,9.477c5.208,2.847 11.353,4.271 18.435,4.271c6.527,-0 12.186,-1.181 16.977,-3.542c4.791,-2.36 7.464,-6.249 8.02,-11.665c0.416,-3.332 -0.243,-6.006 -1.979,-8.019c-1.736,-2.014 -4.548,-3.715 -8.436,-5.104l-23.747,-8.332c-7.638,-2.638 -13.713,-6.145 -18.227,-10.519c-4.513,-4.375 -6.422,-10.242 -5.728,-17.602c0.972,-8.749 4.965,-15.831 11.977,-21.247c7.013,-5.416 16.352,-8.124 28.017,-8.124c9.027,0 16.318,1.25 21.872,3.75c5.555,2.499 10.207,5.346 13.957,8.54l-10.207,14.165c-2.778,-2.639 -6.388,-4.93 -10.832,-6.874c-4.444,-1.944 -9.999,-2.917 -16.664,-2.917c-5.833,0 -10.763,1.077 -14.79,3.229c-4.027,2.153 -6.18,4.965 -6.457,8.436c-0.417,3.472 0.729,6.18 3.437,8.124c2.708,1.945 6.839,3.889 12.394,5.833l1.041,0.416l22.914,8.124c6.527,2.361 11.456,6.041 14.789,11.04c3.333,5 4.652,10.693 3.958,17.081c-0.972,9.721 -5.624,17.463 -13.956,23.226c-8.332,5.763 -18.817,8.645 -31.454,8.645Z" style="fill-rule:nonzero;stroke:#000;stroke-width:3.96px;"/><path d="M1893.27,2521.01c-13.609,-0 -25.483,-3.055 -35.62,-9.165l-0,-20.831l0.625,0.625c5.138,4.027 10.137,7.152 14.998,9.374c4.86,2.222 11.526,3.333 19.997,3.333c7.221,-0 13.262,-1.25 18.122,-3.75c4.861,-2.499 7.291,-5.971 7.291,-10.415c-0,-2.639 -1.25,-5.034 -3.75,-7.187c-2.499,-2.152 -6.11,-4.27 -10.831,-6.353l-5.833,-2.291l-17.914,-6.666c-5.694,-2.083 -10.276,-4.166 -13.748,-6.249c-3.472,-2.083 -6.249,-4.826 -8.332,-8.228c-2.083,-3.402 -3.125,-7.742 -3.125,-13.019c0,-5.833 1.84,-11.005 5.52,-15.519c3.68,-4.513 8.506,-8.019 14.477,-10.519c5.972,-2.5 12.36,-3.75 19.164,-3.75c10.415,0 21.039,2.361 31.871,7.083l-0,19.58c-3.333,-2.638 -7.812,-4.964 -13.436,-6.978c-5.624,-2.013 -11.769,-3.02 -18.435,-3.02c-6.943,-0 -12.255,1.145 -15.935,3.437c-3.68,2.291 -5.52,5.52 -5.52,9.686c-0,2.361 1.284,4.583 3.854,6.666c2.569,2.083 5.936,3.888 10.102,5.416l16.456,6.04l1.042,0.417c6.943,2.5 12.533,4.826 16.768,6.978c4.236,2.153 7.846,5.034 10.832,8.645c2.986,3.61 4.479,8.193 4.479,13.748c-0,7.082 -2.222,13.088 -6.666,18.018c-4.444,4.93 -9.964,8.645 -16.56,11.144c-6.596,2.5 -13.228,3.75 -19.893,3.75Z" style="fill-rule:nonzero;stroke:#000;stroke-width:3.96px;"/><path d="M2010.34,2521.01c-9.999,-0 -19.234,-2.5 -27.705,-7.499c-8.471,-4.999 -15.171,-11.734 -20.101,-20.205c-4.93,-8.472 -7.395,-17.776 -7.395,-27.913c0,-9.999 2.465,-19.234 7.395,-27.705c4.93,-8.471 11.63,-15.171 20.101,-20.101c8.471,-4.93 17.706,-7.395 27.705,-7.395c10.137,0 19.441,2.465 27.913,7.395c8.471,4.93 15.206,11.63 20.205,20.101c4.999,8.471 7.499,17.706 7.499,27.705c-0,10.137 -2.5,19.441 -7.499,27.913c-4.999,8.471 -11.734,15.206 -20.205,20.205c-8.472,4.999 -17.776,7.499 -27.913,7.499Zm-0.209,-16.664c7.222,-0 13.818,-1.736 19.789,-5.208c5.972,-3.472 10.693,-8.193 14.165,-14.165c3.472,-5.971 5.208,-12.498 5.208,-19.58c-0,-6.944 -1.736,-13.366 -5.208,-19.268c-3.472,-5.902 -8.193,-10.589 -14.165,-14.061c-5.971,-3.472 -12.567,-5.208 -19.789,-5.208c-6.943,0 -13.366,1.736 -19.268,5.208c-5.902,3.472 -10.554,8.159 -13.956,14.061c-3.402,5.902 -5.104,12.324 -5.104,19.268c0,7.082 1.702,13.609 5.104,19.58c3.402,5.972 8.054,10.693 13.956,14.165c5.902,3.472 12.325,5.208 19.268,5.208Z" style="fill-rule:nonzero;stroke:#000;stroke-width:3.96px;"/><path d="M2091.99,2413.52l17.706,-0l-0.625,14.373l1.875,-0c6.943,-10.415 16.456,-15.623 28.537,-15.623c2.639,0 5.277,0.313 7.916,0.938c2.638,0.624 4.652,1.562 6.041,2.812l-2.5,19.58l-1.666,0c-1.528,-1.388 -3.472,-2.534 -5.833,-3.437c-2.361,-0.902 -4.791,-1.354 -7.29,-1.354c-5.555,0 -10.589,1.493 -15.103,4.479c-4.513,2.985 -8.783,7.533 -12.81,13.644l-2.708,68.74l-17.706,0l4.166,-104.152Z" style="fill-rule:nonzero;stroke:#000;stroke-width:3.96px;"/><path d="M2176.77,2413.52l17.706,-0l-0,104.152l-17.706,0l-0,-104.152Zm8.957,-21.455c-3.472,-0 -6.423,-1.215 -8.853,-3.646c-2.43,-2.43 -3.645,-5.381 -3.645,-8.853c-0,-3.471 1.215,-6.422 3.645,-8.853c2.43,-2.43 5.381,-3.645 8.853,-3.645c3.472,0 6.423,1.215 8.853,3.645c2.43,2.431 3.645,5.382 3.645,8.853c0,3.472 -1.215,6.423 -3.645,8.853c-2.43,2.431 -5.381,3.646 -8.853,3.646Z" style="fill-rule:nonzero;stroke:#000;stroke-width:3.96px;"/></g><g><path d="M1158.61,2607.9l17.706,0l-0,71.449l53.326,-71.449l21.872,0l-43.119,57.909l52.909,87.904l-20.622,0l-43.536,-72.698l-20.83,27.913l-0,44.785l-17.706,0l-0,-145.813Z" style="fill-rule:nonzero;stroke:#000;stroke-width:3.54px;"/><path d="M1284.84,2699.14l0,-49.577l17.706,0l0,49.577l4.166,54.575l-17.706,0l-4.166,-54.575Zm9.791,-71.032c-3.472,-0 -6.423,-1.215 -8.853,-3.645c-2.431,-2.431 -3.646,-5.382 -3.646,-8.853c0,-3.472 1.215,-6.423 3.646,-8.853c2.43,-2.431 5.381,-3.646 8.853,-3.646c3.471,0 6.422,1.215 8.852,3.646c2.431,2.43 3.646,5.381 3.646,8.853c-0,3.471 -1.215,6.422 -3.646,8.853c-2.43,2.43 -5.381,3.645 -8.852,3.645Z" style="fill-rule:nonzero;stroke:#000;stroke-width:3.54px;"/><path d="M1335.25,2649.56l17.706,0l-0,14.373l1.666,0c4.999,-5.555 10.52,-9.894 16.56,-13.019c6.041,-3.124 12.047,-4.687 18.019,-4.687c10.831,0 19.511,4.028 26.038,12.082c6.527,8.054 9.79,18.678 9.79,31.871c-0,10.692 -0.729,21.247 -2.187,31.662c-1.458,10.415 -3.507,21.039 -6.145,31.87l-18.956,0c3.75,-11.248 6.284,-21.941 7.603,-32.079c1.319,-10.137 1.979,-20.622 1.979,-31.453c0,-7.777 -1.736,-14.165 -5.207,-19.164c-3.472,-5 -8.61,-7.499 -15.415,-7.499c-6.388,-0 -11.977,1.701 -16.768,5.103c-4.791,3.402 -10.45,8.784 -16.977,16.144l-0,68.948l-17.706,0l-0,-104.152Z" style="fill-rule:nonzero;stroke:#000;stroke-width:3.54px;"/><path d="M1494.19,2757.26c-8.61,-0 -16.421,-2.396 -23.434,-7.187c-7.013,-4.791 -12.568,-11.422 -16.665,-19.893c-4.096,-8.471 -6.145,-17.984 -6.145,-28.538c0,-10.693 2.118,-20.24 6.354,-28.642c4.235,-8.401 10.068,-14.963 17.497,-19.684c7.43,-4.722 15.866,-7.083 25.309,-7.083c12.082,0 21.942,5 29.579,14.998l1.459,0l-0,-74.156l17.705,-0l-2.083,104.36l7.916,62.283l-17.914,0l-1.875,-15.831l-3.124,0c-9.582,12.915 -21.109,19.373 -34.579,19.373Zm1.875,-16.665c11.665,0 22.774,-8.124 33.328,-24.371l-2.083,-17.081c-1.388,-10.971 -4.964,-19.755 -10.727,-26.351c-5.763,-6.596 -12.464,-9.894 -20.102,-9.894c-9.998,-0 -17.601,3.784 -22.809,11.352c-5.208,7.569 -7.811,16.699 -7.811,27.392c-0,11.249 2.742,20.553 8.228,27.913c5.485,7.36 12.81,11.04 21.976,11.04Z" style="fill-rule:nonzero;stroke:#000;stroke-width:3.54px;"/><path d="M1627.5,2757.05c-10.832,0 -20.414,-3.09 -28.746,-9.269c-8.332,-6.18 -14.512,-14.755 -18.539,-25.726l-11.457,2.916l-3.541,-16.247l11.04,-2.917c-1.25,-9.582 -0.521,-18.469 2.187,-26.663c2.708,-8.193 7.117,-15.067 13.227,-20.622c6.111,-5.554 13.471,-9.235 22.081,-11.04c8.61,-1.944 17.081,-1.77 25.413,0.521c8.332,2.291 15.588,7.534 21.768,15.727c6.179,8.193 9.963,19.719 11.352,34.578l-73.948,18.956c2.778,7.36 6.596,13.054 11.457,17.081c4.86,4.027 10.762,6.041 17.706,6.041c7.36,-0 14.234,-1.285 20.622,-3.854c6.388,-2.569 12.915,-6.075 19.58,-10.519l4.583,16.664l-2.708,1.458c-6.804,3.889 -13.366,7.013 -19.685,9.374c-6.318,2.361 -13.782,3.541 -22.392,3.541Zm23.955,-70.615c-2.083,-8.471 -6.18,-14.859 -12.29,-19.164c-6.11,-4.305 -13.401,-5.485 -21.872,-3.541c-5.972,1.389 -10.797,3.888 -14.477,7.499c-3.68,3.61 -6.18,7.985 -7.499,13.123c-1.32,5.138 -1.632,10.762 -0.938,16.873l57.076,-14.79Z" style="fill-rule:nonzero;stroke:#000;stroke-width:3.54px;"/><path d="M1698.33,2649.56l17.706,0l-0.625,14.373l1.875,0c6.943,-10.415 16.456,-15.623 28.538,-15.623c2.638,0 5.277,0.313 7.915,0.938c2.639,0.625 4.652,1.562 6.041,2.812l-2.5,19.58l-1.666,0c-1.528,-1.388 -3.472,-2.534 -5.833,-3.437c-2.36,-0.902 -4.791,-1.354 -7.29,-1.354c-5.555,0 -10.589,1.493 -15.102,4.479c-4.514,2.986 -8.784,7.534 -12.811,13.644l-2.708,68.74l-17.706,0l4.166,-104.152Z" style="fill-rule:nonzero;stroke:#000;stroke-width:3.54px;"/><path d="M1784.77,2587.07l17.706,-0l0,76.864l1.667,0c4.444,-5.138 9.998,-9.373 16.664,-12.706c6.666,-3.333 13.332,-5 19.997,-5c6.805,0 12.811,1.806 18.019,5.416c5.207,3.611 9.234,8.263 12.081,13.957c2.847,5.693 4.27,11.595 4.27,17.705l0,70.407l-17.705,0l-0.209,-65.824c0,-7.36 -1.84,-13.262 -5.52,-17.706c-3.68,-4.444 -8.644,-6.665 -14.893,-6.665c-5.555,-0 -11.284,1.735 -17.186,5.207c-5.902,3.472 -11.63,8.61 -17.185,15.415l0,69.573l-17.706,0l0,-166.643Z" style="fill-rule:nonzero;stroke:#000;stroke-width:3.54px;"/><path d="M1939.75,2757.26c-6.249,-0 -12.117,-1.424 -17.602,-4.271c-5.485,-2.847 -9.825,-6.77 -13.019,-11.769c-3.194,-4.999 -4.791,-10.693 -4.791,-17.081c0,-6.11 1.458,-11.734 4.374,-16.873c2.917,-5.138 6.944,-9.234 12.082,-12.289c5.138,-3.056 10.901,-4.583 17.289,-4.583l31.663,-0c-0.972,-7.638 -3.125,-13.644 -6.458,-18.018c-3.333,-4.375 -9.026,-6.562 -17.081,-6.562l-35.62,-0l0,-16.248l35.412,0c13.054,0 22.67,3.472 28.85,10.415c6.18,6.944 9.964,16.179 11.353,27.705l8.332,66.032l-17.706,0l-1.666,-14.164l-0.834,-0c-4.999,5.554 -10.519,9.894 -16.56,13.019c-6.041,3.124 -12.047,4.687 -18.018,4.687Zm1.875,-16.248c4.999,-0 10.241,-1.563 15.727,-4.687c5.485,-3.125 10.866,-7.603 16.143,-13.436l-1.875,-16.872l-32.287,-0c-5.693,-0 -10.172,1.458 -13.435,4.374c-3.264,2.916 -4.896,6.805 -4.896,11.665c0,5.555 1.806,10.103 5.416,13.644c3.611,3.541 8.68,5.312 15.207,5.312Z" style="fill-rule:nonzero;stroke:#000;stroke-width:3.54px;"/><path d="M2052.65,2757.05c-6.111,0 -12.082,-1.944 -17.914,-5.832c-5.833,-3.889 -10.381,-9.166 -13.644,-15.831c-3.264,-6.666 -4.34,-14.026 -3.229,-22.081l9.165,-63.741l18.123,0l-8.749,58.325c-1.528,10.416 -0.382,18.296 3.437,23.643c3.819,5.346 9.756,8.02 17.81,8.02c4.999,-0 10.137,-1.84 15.415,-5.52c5.277,-3.68 11.04,-8.992 17.289,-15.936c-1.944,-22.219 -1.528,-45.063 1.25,-68.532l17.705,0c-2.36,16.942 -3.228,33.815 -2.603,50.618c0.625,16.803 3.298,34.648 8.019,53.534l-18.747,0c-1.25,-5.693 -2.222,-10.484 -2.916,-14.373l-3.75,0c-10.693,11.804 -22.913,17.706 -36.661,17.706Z" style="fill-rule:nonzero;stroke:#000;stroke-width:3.54px;"/><path d="M2175.76,2757.05c-13.61,0 -25.483,-3.055 -35.62,-9.165l-0,-20.831l0.624,0.625c5.139,4.028 10.138,7.152 14.998,9.374c4.861,2.222 11.527,3.333 19.998,3.333c7.221,-0 13.262,-1.25 18.122,-3.75c4.86,-2.499 7.291,-5.971 7.291,-10.415c-0,-2.638 -1.25,-5.034 -3.75,-7.186c-2.499,-2.153 -6.11,-4.271 -10.832,-6.354l-5.832,-2.291l-17.914,-6.666c-5.694,-2.083 -10.277,-4.166 -13.748,-6.249c-3.472,-2.083 -6.25,-4.826 -8.333,-8.228c-2.083,-3.402 -3.124,-7.742 -3.124,-13.019c-0,-5.832 1.84,-11.005 5.52,-15.519c3.68,-4.513 8.506,-8.019 14.477,-10.519c5.971,-2.5 12.359,-3.749 19.164,-3.749c10.415,-0 21.039,2.36 31.871,7.082l-0,19.581c-3.333,-2.639 -7.812,-4.965 -13.436,-6.979c-5.624,-2.013 -11.769,-3.02 -18.435,-3.02c-6.943,-0 -12.255,1.146 -15.935,3.437c-3.68,2.291 -5.52,5.52 -5.52,9.686c-0,2.361 1.284,4.583 3.853,6.666c2.569,2.083 5.937,3.888 10.103,5.416l16.456,6.041l1.042,0.416c6.943,2.5 12.533,4.826 16.768,6.978c4.236,2.153 7.846,5.034 10.832,8.645c2.986,3.611 4.479,8.193 4.479,13.748c-0,7.082 -2.222,13.089 -6.666,18.018c-4.444,4.93 -9.964,8.645 -16.56,11.145c-6.597,2.499 -13.228,3.749 -19.893,3.749Z" style="fill-rule:nonzero;stroke:#000;stroke-width:3.54px;"/></g></g></svg>