<?xml version="1.0" encoding="UTF-8" standalone="no"?><!DOCTYPE svg PUBLIC "-//W3C//DTD SVG 1.1//EN" "http://www.w3.org/Graphics/SVG/1.1/DTD/svg11.dtd"><svg width="100%" height="100%" viewBox="411 491 2853 1701" version="1.1" xmlns="http://www.w3.org/2000/svg" xmlns:xlink="http://www.w3.org/1999/xlink" xml:space="preserve" xmlns:serif="http://www.serif.com/" style="fill-rule:evenodd;clip-rule:evenodd;stroke-linejoin:round;stroke-miterlimit:2;"><g><g><path d="M619.417,1005.43l111.19,13.399l46.149,5.102l-0,-191.341l-30.249,-6.43l-127.09,0l-11.54,47.273l11.54,131.997Z" style="fill:#ff6361;"/></g><g><path d="M784.341,832.593l45.976,18.196l11.664,85.882l-7.037,102.703l-22.93,-4.34l-21.75,-6.943l-3.295,-75.309l-2.628,-81.451l0,-38.738Z" style="fill:#ff6361;"/></g><g><path d="M635.993,816.331l-11.97,-94.984l11.97,-46.64l60.116,6.85l56.601,-0l0,69.335l-4.4,65.439l-29.421,-1.991l-82.896,1.991Z" style="fill:#ff6361;"/></g><g><path d="M762.505,681.669l-3.957,118.707l0,17.439l29.873,5.623l6.776,3.292l4.098,-35.133l-9.031,-105.326l-27.759,-4.602Z" style="fill:#ff6361;"/></g><g><path d="M653.895,665.099l38.421,9.607l15.175,-2.291l-0,-102.838l-5.56,-57.974l-33.237,3.892l-7.863,46.875l-6.936,102.729Z" style="fill:#ff6361;"/></g><g><path d="M711.4,511.603l65.355,17.006l2.167,86.327l-0.944,63.544l-62.167,-6.713l0,-100.292l-4.411,-59.872Z" style="fill:#ff6361;"/></g><g><path d="M578.916,1284.22l74.056,1.59l64.659,-3.969l-0,-113.992l12.976,-132.819l-77.635,-16.202l-74.056,4.636l5.386,155.091l-5.386,105.665Z" style="fill:#ff6361;"/></g><g><path d="M741.258,1035.03l91.305,11.317l27.225,12.178l0,234.396l-94.775,0l-34.406,-7.111l-0,-116.384l10.651,-134.396Z" style="fill:#ff6361;"/></g><g><path d="M806.875,1635.98l-22.534,214.906l-9.398,156.57l-0,157.697l-46.407,-6.73l-296.576,-75.71l0,-231.827l10.581,-141.53l-10.581,-74.085l111.753,4.469l176.146,-0l87.016,-3.76Z" style="fill:#ff6361;"/></g><g><path d="M986.21,1614.85l-159.498,20.426l-25.364,267.575l-11.084,104.202l-0,163.373l156.32,-62.75l55.242,-21.889l-15.616,-182.936l5.346,-104.828l-5.346,-183.173Z" style="fill:#ff6361;"/></g><g><path d="M501.999,1295.67l215.632,-2.743l46.172,19.918l-12.714,167.151l3.034,149.658l-36.492,0l-98.214,-1.752l-74.617,-0l-48.011,-3.715l5.21,-135.2l-5.21,-130.649l-6.364,-52.932l11.574,-9.736Z" style="fill:#ff6361;"/></g><g><path d="M778.922,1315.26l117.123,0l26.829,16.984l7.043,139.133l4.491,109.151l-0,23.932l-43.515,5.123l-77.732,9.799l-48.148,4.796l-1.21,-19.718l0,-124.155l15.119,-165.045Z" style="fill:#ff6361;"/></g></g><g><path d="M1063.86,1713.02l122.341,-0c18.483,-0 34.986,4.327 49.509,12.982c14.522,8.655 25.891,20.317 34.106,34.986c8.214,14.669 12.322,30.805 12.322,48.408c-0,17.603 -4.034,33.886 -12.102,48.849c-8.068,14.963 -19.437,26.918 -34.106,35.866c-14.67,8.948 -31.246,13.422 -49.729,13.422l-84.935,0l0,113.54l-37.406,0l-0,-308.053Zm122.781,159.307c12.029,0 22.371,-2.86 31.025,-8.581c8.655,-5.721 15.256,-13.349 19.804,-22.884c4.547,-9.535 6.821,-20.024 6.821,-31.466c0,-11.148 -2.567,-21.343 -7.701,-30.585c-5.134,-9.242 -12.102,-16.649 -20.904,-22.224c-8.801,-5.574 -18.483,-8.361 -29.045,-8.361l-85.375,-0l0,124.101l85.375,0Z" style="fill-rule:nonzero;stroke:#000;stroke-width:3.75px;"/><path d="M1438.36,2028.11c-21.124,0 -40.634,-5.28 -58.53,-15.842c-17.897,-10.562 -32.053,-24.791 -42.468,-42.688c-10.415,-17.896 -15.622,-37.553 -15.622,-58.97c-0,-21.124 5.207,-40.634 15.622,-58.53c10.415,-17.897 24.571,-32.052 42.468,-42.468c17.896,-10.415 37.406,-15.622 58.53,-15.622c21.417,-0 41.074,5.207 58.97,15.622c17.897,10.416 32.126,24.571 42.688,42.468c10.561,17.896 15.842,37.406 15.842,58.53c0,21.417 -5.281,41.074 -15.842,58.97c-10.562,17.897 -24.791,32.126 -42.688,42.688c-17.896,10.562 -37.553,15.842 -58.97,15.842Zm-0.44,-35.206c15.256,0 29.192,-3.667 41.807,-11.002c12.616,-7.334 22.591,-17.309 29.925,-29.925c7.335,-12.615 11.002,-26.404 11.002,-41.367c0,-14.669 -3.667,-28.238 -11.002,-40.707c-7.334,-12.469 -17.309,-22.371 -29.925,-29.705c-12.615,-7.335 -26.551,-11.002 -41.807,-11.002c-14.669,-0 -28.238,3.667 -40.707,11.002c-12.469,7.334 -22.297,17.236 -29.485,29.705c-7.188,12.469 -10.782,26.038 -10.782,40.707c-0,14.963 3.594,28.752 10.782,41.367c7.188,12.616 17.016,22.591 29.485,29.925c12.469,7.335 26.038,11.002 40.707,11.002Z" style="fill-rule:nonzero;stroke:#000;stroke-width:3.75px;"/><path d="M1635.96,2028.11c-11.148,-1.173 -19.583,-6.161 -25.304,-14.962c-5.721,-8.802 -8.288,-19.07 -7.701,-30.805l9.681,-146.986l-30.365,-0l-0,-34.326l32.566,-0l8.801,-132.023l37.847,-0l-8.362,132.023l33.006,-0l0,34.326l-35.206,-0l-8.802,136.424c-0.586,6.748 0.22,11.662 2.421,14.742c2.2,3.081 5.941,4.621 11.222,4.621c6.454,0 13.789,-1.907 22.004,-5.721l1.76,0l-2.641,35.646c-5.281,2.641 -11.515,4.694 -18.703,6.161c-7.188,1.467 -14.596,1.761 -22.224,0.88Z" style="fill-rule:nonzero;stroke:#000;stroke-width:3.75px;"/><path d="M1806.27,2028.11c-28.752,0 -53.836,-6.454 -75.253,-19.363l-0,-44.008l1.32,1.321c10.855,8.508 21.417,15.109 31.686,19.803c10.268,4.694 24.35,7.041 42.247,7.041c15.256,0 28.018,-2.64 38.287,-7.921c10.268,-5.281 15.402,-12.616 15.402,-22.004c0,-5.574 -2.64,-10.635 -7.921,-15.182c-5.281,-4.548 -12.909,-9.022 -22.884,-13.423l-12.322,-4.841l-37.847,-14.082c-12.029,-4.401 -21.71,-8.802 -29.045,-13.202c-7.335,-4.401 -13.202,-10.196 -17.603,-17.383c-4.401,-7.188 -6.601,-16.357 -6.601,-27.505c-0,-12.322 3.887,-23.251 11.662,-32.786c7.775,-9.535 17.97,-16.943 30.585,-22.224c12.616,-5.281 26.111,-7.921 40.487,-7.921c22.004,-0 44.448,4.987 67.332,14.962l0,41.368c-7.041,-5.575 -16.503,-10.489 -28.385,-14.743c-11.882,-4.254 -24.864,-6.381 -38.947,-6.381c-14.669,-0 -25.891,2.42 -33.666,7.261c-7.774,4.841 -11.662,11.662 -11.662,20.464c0,4.987 2.714,9.681 8.142,14.082c5.427,4.401 12.542,8.215 21.344,11.442l34.766,12.762l2.2,0.881c14.669,5.281 26.478,10.195 35.426,14.742c8.948,4.548 16.576,10.635 22.884,18.263c6.308,7.628 9.462,17.31 9.462,29.045c-0,14.963 -4.694,27.652 -14.083,38.067c-9.388,10.415 -21.05,18.263 -34.986,23.544c-13.936,5.281 -27.945,7.921 -42.027,7.921Z" style="fill-rule:nonzero;stroke:#000;stroke-width:3.75px;"/><path d="M2032.47,2021.07c-19.07,0 -35.793,-4.107 -50.168,-12.322c-14.376,-8.215 -25.525,-19.803 -33.446,-34.766c-7.922,-14.963 -11.882,-32.272 -11.882,-51.929c-0,-22.884 5.427,-43.568 16.282,-62.051c10.856,-18.483 25.818,-32.932 44.888,-43.347c19.07,-10.415 40.487,-15.623 64.251,-15.623l41.808,-0l4.841,-132.023l35.206,-0l-11.882,316.415l22.884,0l-0,35.646l-122.782,0Zm64.692,-35.646l5.721,-149.186l-44.008,0c-16.43,0 -31.026,3.594 -43.788,10.782c-12.762,7.188 -22.737,17.31 -29.925,30.365c-7.188,13.056 -10.782,27.945 -10.782,44.668c0,20.244 5.134,35.94 15.403,47.088c10.268,11.149 24.497,16.723 42.687,16.723l64.692,-0.44Z" style="fill-rule:nonzero;stroke:#000;stroke-width:3.75px;"/><path d="M2272.31,2028.11c-11.735,0 -22.664,-2.933 -32.786,-8.801c-10.121,-5.868 -18.263,-14.082 -24.424,-24.644c-6.161,-10.562 -9.242,-22.591 -9.242,-36.087c0,-12.615 3.668,-24.571 11.002,-35.866c7.335,-11.295 16.797,-20.39 28.385,-27.285c11.589,-6.894 23.251,-10.341 34.986,-10.341l64.692,-0c-0.294,-16.43 -4.768,-29.779 -13.423,-40.047c-8.655,-10.269 -21.783,-15.403 -39.387,-15.403c-25.817,-0 -46.648,8.655 -62.49,25.964l-3.521,0l-11.442,-34.766c10.562,-8.801 22.517,-15.476 35.866,-20.023c13.349,-4.548 26.185,-6.821 38.507,-6.821c19.363,-0 36.086,3.814 50.169,11.442c14.082,7.628 24.644,18.043 31.685,31.245c7.041,13.202 9.975,28.165 8.802,44.888l-8.362,139.504l-37.406,0l1.76,-22.884l-2.64,0c-7.628,9.389 -16.21,16.723 -25.745,22.004c-9.535,5.281 -21.197,7.921 -34.986,7.921Zm8.361,-35.206c9.682,0 19.511,-2.493 29.486,-7.481c9.975,-4.987 19.51,-12.762 28.605,-23.324l3.96,-44.008l-58.09,0c-12.029,0 -21.857,3.448 -29.485,10.342c-7.628,6.895 -11.442,15.476 -11.442,25.745c0,11.148 3.081,20.39 9.242,27.724c6.161,7.335 15.402,11.002 27.724,11.002Z" style="fill-rule:nonzero;stroke:#000;stroke-width:3.75px;"/><path d="M2447.9,1801.03l37.406,-0l0,30.365l3.521,0c11.148,-12.615 21.197,-22.004 30.145,-28.165c8.948,-6.161 19.877,-9.241 32.786,-9.241c25.524,-0 45.328,12.469 59.41,37.406l3.961,0c11.148,-12.322 22.444,-21.637 33.886,-27.945c11.442,-6.307 24.35,-9.461 38.726,-9.461c13.789,-0 26.405,3.887 37.847,11.662c11.442,7.774 20.243,18.336 26.404,31.685c6.162,13.349 8.655,28.092 7.482,44.228l-10.122,139.504l-37.406,0l8.361,-123.221c1.467,-19.657 -1.1,-35.72 -7.701,-48.189c-6.602,-12.468 -17.677,-18.703 -33.226,-18.703c-9.682,0 -18.923,2.934 -27.725,8.802c-8.802,5.867 -18.923,15.109 -30.365,27.725l-0,153.586l-38.287,0l-0.44,-139.064c-0,-16.429 -3.154,-29.265 -9.462,-38.507c-6.307,-9.241 -15.769,-13.862 -28.385,-13.862c-9.681,-0 -18.996,3.814 -27.944,11.442c-8.949,7.628 -19.437,19.51 -31.466,35.646l0,144.345l-37.406,0l-0,-220.038Z" style="fill-rule:nonzero;stroke:#000;stroke-width:3.75px;"/></g><g><path d="M919.057,781.73l66.892,0l77.453,272.848l0.44,-0l77.454,-272.848l66.891,0l0,308.054l-37.406,0l-0,-272.847l-0.44,-0l-77.454,272.847l-58.53,0l-77.453,-272.847l-0.44,-0l-0,272.847l-37.407,0l0,-308.054Z" style="fill-rule:nonzero;stroke:#000;stroke-width:3.96px;"/><path d="M1384.22,1096.83c-21.124,0 -40.634,-5.281 -58.53,-15.842c-17.897,-10.562 -32.052,-24.791 -42.467,-42.688c-10.416,-17.896 -15.623,-37.553 -15.623,-58.97c-0,-21.124 5.207,-40.634 15.623,-58.53c10.415,-17.897 24.57,-32.053 42.467,-42.468c17.896,-10.415 37.406,-15.622 58.53,-15.622c21.417,-0 41.074,5.207 58.97,15.622c17.897,10.415 32.126,24.571 42.688,42.468c10.562,17.896 15.843,37.406 15.843,58.53c-0,21.417 -5.281,41.074 -15.843,58.97c-10.562,17.897 -24.791,32.126 -42.688,42.688c-17.896,10.561 -37.553,15.842 -58.97,15.842Zm-0.44,-35.206c15.256,0 29.192,-3.667 41.807,-11.002c12.616,-7.334 22.591,-17.309 29.926,-29.925c7.334,-12.615 11.001,-26.405 11.001,-41.367c0,-14.669 -3.667,-28.238 -11.001,-40.707c-7.335,-12.469 -17.31,-22.371 -29.926,-29.705c-12.615,-7.335 -26.551,-11.002 -41.807,-11.002c-14.669,-0 -28.238,3.667 -40.707,11.002c-12.469,7.334 -22.297,17.236 -29.485,29.705c-7.188,12.469 -10.782,26.038 -10.782,40.707c-0,14.962 3.594,28.752 10.782,41.367c7.188,12.616 17.016,22.591 29.485,29.925c12.469,7.335 26.038,11.002 40.707,11.002Z" style="fill-rule:nonzero;stroke:#000;stroke-width:3.96px;"/><path d="M1561.13,869.746l37.406,-0l0,30.365l3.521,0c10.562,-11.735 22.224,-20.904 34.986,-27.505c12.762,-6.601 25.451,-9.901 38.067,-9.901c22.884,-0 41.22,8.508 55.009,25.524c13.789,17.016 20.684,39.46 20.684,67.332c-0,22.59 -1.54,44.888 -4.621,66.891c-3.08,22.004 -7.408,44.448 -12.982,67.332l-40.047,0c7.921,-23.764 13.276,-46.355 16.063,-67.772c2.787,-21.417 4.18,-43.567 4.18,-66.451c0,-16.43 -3.667,-29.926 -11.002,-40.487c-7.334,-10.562 -18.189,-15.843 -32.565,-15.843c-13.496,-0 -25.305,3.594 -35.426,10.782c-10.122,7.188 -22.078,18.556 -35.867,34.106l0,145.665l-37.406,0l-0,-220.038Z" style="fill-rule:nonzero;stroke:#000;stroke-width:3.96px;"/><path d="M1850.7,1096.83c-10.855,-1.173 -18.776,-6.014 -23.764,-14.522c-4.987,-8.508 -7.481,-18.924 -7.481,-31.246l-0,-146.985l-24.644,-0l-0,-34.326l24.644,-0l-0,-132.023l37.406,-0l0,132.023l44.008,-0l0,34.326l-44.008,-0l0,136.423c0,7.042 1.027,12.249 3.081,15.623c2.054,3.374 5.574,5.061 10.562,5.061c3.227,0 6.454,-0.587 9.681,-1.76c3.228,-1.174 6.308,-2.494 9.242,-3.961l3.081,-1.32l1.76,-0l-0,35.646c-5.868,2.641 -12.689,4.694 -20.464,6.161c-7.774,1.467 -15.476,1.76 -23.104,0.88Z" style="fill-rule:nonzero;stroke:#000;stroke-width:3.96px;"/><path d="M2054.45,1096.83c-22.884,0 -43.128,-6.528 -60.731,-19.583c-17.603,-13.056 -30.658,-31.172 -39.167,-54.35l-24.204,6.161l-7.481,-34.325l23.324,-6.162c-2.641,-20.243 -1.1,-39.02 4.621,-56.329c5.721,-17.31 15.036,-31.833 27.945,-43.568c12.909,-11.735 28.458,-19.51 46.648,-23.324c18.19,-4.107 36.086,-3.741 53.689,1.1c17.603,4.841 32.932,15.916 45.988,33.226c13.056,17.31 21.05,41.661 23.984,73.053l-156.227,40.047c5.868,15.549 13.936,27.578 24.204,36.086c10.269,8.508 22.738,12.762 37.407,12.762c15.549,0 30.072,-2.714 43.567,-8.141c13.496,-5.428 27.285,-12.836 41.368,-22.224l9.681,35.206l-5.721,3.081c-14.376,8.214 -28.238,14.815 -41.587,19.803c-13.349,4.988 -29.118,7.481 -47.308,7.481Zm50.609,-149.186c-4.401,-17.896 -13.056,-31.392 -25.965,-40.487c-12.909,-9.095 -28.312,-11.588 -46.208,-7.481c-12.616,2.934 -22.811,8.215 -30.585,15.843c-7.775,7.628 -13.056,16.869 -15.843,27.725c-2.787,10.855 -3.447,22.737 -1.98,35.646l120.581,-31.246Z" style="fill-rule:nonzero;stroke:#000;stroke-width:3.96px;"/><path d="M2260.41,1096.83c-17.603,0 -33.813,-3.594 -48.629,-10.782c-14.816,-7.188 -26.918,-15.622 -36.306,-25.304l25.084,-30.365l1.76,2.2c6.162,7.335 14.743,14.009 25.745,20.024c11.002,6.014 23.984,9.021 38.947,9.021c13.789,0 25.744,-2.494 35.866,-7.481c10.122,-4.988 15.769,-13.202 16.943,-24.644c0.88,-7.042 -0.513,-12.689 -4.181,-16.943c-3.667,-4.254 -9.608,-7.848 -17.823,-10.782l-50.169,-17.603c-16.136,-5.575 -28.971,-12.983 -38.506,-22.224c-9.535,-9.242 -13.569,-21.637 -12.102,-37.187c2.053,-18.483 10.488,-33.445 25.304,-44.887c14.816,-11.442 34.546,-17.163 59.19,-17.163c19.07,-0 34.473,2.64 46.208,7.921c11.736,5.281 21.564,11.295 29.485,18.043l-21.563,29.925c-5.868,-5.574 -13.496,-10.415 -22.884,-14.522c-9.389,-4.108 -21.124,-6.161 -35.206,-6.161c-12.323,-0 -22.738,2.273 -31.246,6.821c-8.508,4.547 -13.055,10.488 -13.642,17.823c-0.88,7.335 1.54,13.056 7.261,17.163c5.721,4.107 14.449,8.215 26.185,12.322l2.2,0.88l48.408,17.163c13.789,4.988 24.205,12.762 31.246,23.324c7.041,10.562 9.828,22.591 8.361,36.087c-2.053,20.536 -11.882,36.893 -29.485,49.068c-17.603,12.176 -39.753,18.263 -66.451,18.263Z" style="fill-rule:nonzero;stroke:#000;stroke-width:3.96px;"/><path d="M2477.37,1096.83c-28.751,0 -53.836,-6.454 -75.253,-19.363l0,-44.008l1.32,1.32c10.856,8.509 21.418,15.11 31.686,19.804c10.268,4.694 24.351,7.041 42.247,7.041c15.256,0 28.019,-2.64 38.287,-7.921c10.268,-5.281 15.403,-12.616 15.403,-22.004c-0,-5.574 -2.641,-10.635 -7.922,-15.183c-5.281,-4.547 -12.909,-9.021 -22.884,-13.422l-12.322,-4.841l-37.846,-14.082c-12.029,-4.401 -21.711,-8.802 -29.045,-13.203c-7.335,-4.4 -13.203,-10.195 -17.604,-17.383c-4.4,-7.188 -6.601,-16.356 -6.601,-27.504c0,-12.323 3.888,-23.251 11.662,-32.786c7.775,-9.535 17.97,-16.943 30.586,-22.224c12.615,-5.281 26.111,-7.921 40.487,-7.921c22.004,-0 44.447,4.987 67.331,14.962l0,41.367c-7.041,-5.574 -16.502,-10.488 -28.384,-14.742c-11.883,-4.254 -24.865,-6.381 -38.947,-6.381c-14.669,-0 -25.891,2.42 -33.666,7.261c-7.775,4.841 -11.662,11.662 -11.662,20.464c-0,4.987 2.714,9.681 8.141,14.082c5.428,4.401 12.542,8.215 21.344,11.442l34.766,12.762l2.2,0.88c14.67,5.281 26.478,10.195 35.427,14.743c8.948,4.547 16.576,10.635 22.884,18.263c6.307,7.628 9.461,17.31 9.461,29.045c0,14.963 -4.694,27.652 -14.082,38.067c-9.389,10.415 -21.051,18.263 -34.986,23.544c-13.936,5.281 -27.945,7.921 -42.028,7.921Z" style="fill-rule:nonzero;stroke:#000;stroke-width:3.96px;"/><path d="M2724.69,1096.83c-21.123,0 -40.633,-5.281 -58.53,-15.842c-17.896,-10.562 -32.052,-24.791 -42.467,-42.688c-10.415,-17.896 -15.623,-37.553 -15.623,-58.97c0,-21.124 5.208,-40.634 15.623,-58.53c10.415,-17.897 24.571,-32.053 42.467,-42.468c17.897,-10.415 37.407,-15.622 58.53,-15.622c21.417,-0 41.074,5.207 58.971,15.622c17.896,10.415 32.125,24.571 42.687,42.468c10.562,17.896 15.843,37.406 15.843,58.53c-0,21.417 -5.281,41.074 -15.843,58.97c-10.562,17.897 -24.791,32.126 -42.687,42.688c-17.897,10.561 -37.554,15.842 -58.971,15.842Zm-0.44,-35.206c15.256,0 29.192,-3.667 41.808,-11.002c12.615,-7.334 22.59,-17.309 29.925,-29.925c7.334,-12.615 11.002,-26.405 11.002,-41.367c-0,-14.669 -3.668,-28.238 -11.002,-40.707c-7.335,-12.469 -17.31,-22.371 -29.925,-29.705c-12.616,-7.335 -26.552,-11.002 -41.808,-11.002c-14.669,-0 -28.238,3.667 -40.707,11.002c-12.469,7.334 -22.297,17.236 -29.485,29.705c-7.188,12.469 -10.782,26.038 -10.782,40.707c0,14.962 3.594,28.752 10.782,41.367c7.188,12.616 17.016,22.591 29.485,29.925c12.469,7.335 26.038,11.002 40.707,11.002Z" style="fill-rule:nonzero;stroke:#000;stroke-width:3.96px;"/><path d="M2897.2,869.746l37.407,-0l-1.32,30.365l3.96,0c14.67,-22.004 34.766,-33.006 60.291,-33.006c5.574,0 11.148,0.66 16.723,1.981c5.574,1.32 9.828,3.3 12.762,5.941l-5.281,41.367l-3.521,-0c-3.227,-2.934 -7.334,-5.354 -12.322,-7.261c-4.987,-1.907 -10.121,-2.861 -15.402,-2.861c-11.736,0 -22.371,3.154 -31.906,9.462c-9.535,6.308 -18.556,15.916 -27.065,28.825l-5.721,145.225l-37.406,0l8.801,-220.038Z" style="fill-rule:nonzero;stroke:#000;stroke-width:3.96px;"/><path d="M3076.31,869.746l37.406,-0l0,220.038l-37.406,0l-0,-220.038Zm18.923,-45.328c-7.335,-0 -13.569,-2.567 -18.703,-7.701c-5.135,-5.135 -7.702,-11.369 -7.702,-18.704c0,-7.334 2.567,-13.569 7.702,-18.703c5.134,-5.134 11.368,-7.701 18.703,-7.701c7.334,-0 13.569,2.567 18.703,7.701c5.134,5.134 7.701,11.369 7.701,18.703c0,7.335 -2.567,13.569 -7.701,18.704c-5.134,5.134 -11.369,7.701 -18.703,7.701Z" style="fill-rule:nonzero;stroke:#000;stroke-width:3.96px;"/></g><g><path d="M1002.18,1247.41l37.407,-0l-0,150.946l112.659,-150.946l46.208,-0l-91.095,122.341l111.779,185.712l-43.568,0l-91.976,-153.586l-44.007,58.97l-0,94.616l-37.407,0l0,-308.053Z" style="fill-rule:nonzero;stroke:#000;stroke-width:3.54px;"/><path d="M1268.86,1440.16l-0,-104.738l37.406,0l0,104.738l8.802,115.3l-37.407,0l-8.801,-115.3Zm20.683,-150.066c-7.334,0 -13.569,-2.567 -18.703,-7.701c-5.134,-5.134 -7.701,-11.369 -7.701,-18.703c-0,-7.335 2.567,-13.569 7.701,-18.704c5.134,-5.134 11.369,-7.701 18.703,-7.701c7.335,-0 13.569,2.567 18.704,7.701c5.134,5.135 7.701,11.369 7.701,18.704c-0,7.334 -2.567,13.569 -7.701,18.703c-5.135,5.134 -11.369,7.701 -18.704,7.701Z" style="fill-rule:nonzero;stroke:#000;stroke-width:3.54px;"/><path d="M1375.36,1335.42l37.407,0l-0,30.365l3.52,0c10.562,-11.735 22.224,-20.903 34.986,-27.504c12.763,-6.602 25.452,-9.902 38.067,-9.902c22.884,-0 41.221,8.508 55.01,25.524c13.789,17.017 20.683,39.46 20.683,67.332c0,22.591 -1.54,44.888 -4.621,66.892c-3.08,22.003 -7.408,44.447 -12.982,67.331l-40.047,0c7.922,-23.764 13.276,-46.354 16.063,-67.771c2.787,-21.417 4.181,-43.568 4.181,-66.452c-0,-16.43 -3.668,-29.925 -11.002,-40.487c-7.335,-10.562 -18.19,-15.843 -32.566,-15.843c-13.496,0 -25.304,3.594 -35.426,10.782c-10.122,7.188 -22.077,18.557 -35.866,34.106l-0,145.665l-37.407,0l0,-220.038Z" style="fill-rule:nonzero;stroke:#000;stroke-width:3.54px;"/><path d="M1711.14,1562.94c-18.19,-0 -34.693,-5.061 -49.509,-15.183c-14.816,-10.122 -26.551,-24.131 -35.206,-42.027c-8.655,-17.897 -12.982,-37.994 -12.982,-60.291c-0,-22.59 4.474,-42.761 13.422,-60.51c8.948,-17.75 21.27,-31.612 36.966,-41.588c15.696,-9.975 33.52,-14.962 53.47,-14.962c25.524,-0 46.354,10.562 62.491,31.685l3.08,0l0,-156.667l37.407,0l-4.401,220.478l16.723,131.583l-37.847,0l-3.96,-33.445l-6.602,-0c-20.243,27.284 -44.594,40.927 -73.052,40.927Zm3.96,-35.206c24.645,-0 48.115,-17.163 70.413,-51.489l-4.401,-36.087c-2.934,-23.177 -10.489,-41.734 -22.664,-55.669c-12.176,-13.936 -26.331,-20.904 -42.467,-20.904c-21.124,-0 -37.187,7.995 -48.189,23.984c-11.002,15.99 -16.503,35.28 -16.503,57.87c0,23.764 5.795,43.421 17.383,58.97c11.589,15.55 27.065,23.325 46.428,23.325Z" style="fill-rule:nonzero;stroke:#000;stroke-width:3.54px;"/><path d="M1992.79,1562.5c-22.884,-0 -43.128,-6.528 -60.731,-19.584c-17.603,-13.055 -30.659,-31.172 -39.167,-54.349l-24.204,6.161l-7.481,-34.326l23.324,-6.161c-2.641,-20.244 -1.1,-39.02 4.621,-56.33c5.721,-17.31 15.036,-31.832 27.944,-43.568c12.909,-11.735 28.459,-19.51 46.649,-23.324c18.189,-4.107 36.086,-3.74 53.689,1.1c17.603,4.841 32.932,15.917 45.988,33.226c13.056,17.31 21.05,41.661 23.984,73.053l-156.227,40.047c5.868,15.549 13.936,27.578 24.204,36.086c10.269,8.508 22.737,12.762 37.407,12.762c15.549,0 30.072,-2.713 43.567,-8.141c13.496,-5.428 27.285,-12.836 41.367,-22.224l9.682,35.206l-5.721,3.081c-14.376,8.215 -28.238,14.816 -41.587,19.803c-13.349,4.988 -29.118,7.482 -47.308,7.482Zm50.608,-149.186c-4.4,-17.897 -13.055,-31.393 -25.964,-40.487c-12.909,-9.095 -28.312,-11.589 -46.208,-7.482c-12.616,2.934 -22.811,8.215 -30.585,15.843c-7.775,7.628 -13.056,16.87 -15.843,27.725c-2.787,10.855 -3.447,22.737 -1.981,35.646l120.581,-31.245Z" style="fill-rule:nonzero;stroke:#000;stroke-width:3.54px;"/><path d="M2142.41,1335.42l37.406,0l-1.32,30.365l3.961,0c14.669,-22.003 34.766,-33.005 60.29,-33.005c5.574,-0 11.149,0.66 16.723,1.98c5.574,1.32 9.828,3.301 12.762,5.941l-5.281,41.367l-3.52,0c-3.227,-2.934 -7.335,-5.354 -12.322,-7.261c-4.988,-1.907 -10.122,-2.861 -15.403,-2.861c-11.735,0 -22.371,3.154 -31.906,9.462c-9.535,6.308 -18.556,15.916 -27.064,28.825l-5.721,145.225l-37.407,0l8.802,-220.038Z" style="fill-rule:nonzero;stroke:#000;stroke-width:3.54px;"/><path d="M2325.05,1203.4l37.407,0l0,162.388l3.521,0c9.388,-10.855 21.123,-19.803 35.206,-26.844c14.082,-7.042 28.165,-10.562 42.247,-10.562c14.376,-0 27.065,3.814 38.067,11.442c11.002,7.628 19.51,17.456 25.524,29.485c6.015,12.029 9.022,24.498 9.022,37.406l-0,148.746l-37.407,0l-0.44,-139.064c0,-15.549 -3.887,-28.018 -11.662,-37.406c-7.775,-9.389 -18.263,-14.083 -31.465,-14.083c-11.736,0 -23.838,3.668 -36.307,11.002c-12.469,7.335 -24.571,18.19 -36.306,32.566l0,146.985l-37.407,0l0,-352.061Z" style="fill-rule:nonzero;stroke:#000;stroke-width:3.54px;"/><path d="M2652.46,1562.94c-13.202,-0 -25.597,-3.008 -37.186,-9.022c-11.589,-6.014 -20.757,-14.302 -27.505,-24.864c-6.748,-10.562 -10.122,-22.591 -10.122,-36.087c0,-12.908 3.081,-24.79 9.242,-35.646c6.161,-10.855 14.669,-19.51 25.524,-25.964c10.856,-6.455 23.031,-9.682 36.527,-9.682l66.891,0c-2.053,-16.136 -6.601,-28.825 -13.642,-38.067c-7.041,-9.241 -19.07,-13.862 -36.086,-13.862l-75.253,0l-0,-34.326l74.813,0c27.578,0 47.895,7.335 60.95,22.004c13.056,14.669 21.051,34.179 23.985,58.53l17.603,139.504l-37.407,0l-3.521,-29.925l-1.76,0c-10.562,11.736 -22.224,20.904 -34.986,27.505c-12.762,6.601 -25.451,9.902 -38.067,9.902Zm3.961,-34.326c10.562,-0 21.637,-3.301 33.226,-9.902c11.589,-6.601 22.957,-16.063 34.106,-28.385l-3.961,-35.646l-68.212,-0c-12.028,-0 -21.49,3.08 -28.385,9.241c-6.894,6.162 -10.341,14.376 -10.341,24.645c-0,11.735 3.814,21.343 11.442,28.825c7.628,7.481 18.336,11.222 32.125,11.222Z" style="fill-rule:nonzero;stroke:#000;stroke-width:3.54px;"/><path d="M2890.99,1562.5c-12.909,-0 -25.524,-4.108 -37.847,-12.323c-12.322,-8.214 -21.93,-19.363 -28.825,-33.445c-6.894,-14.083 -9.168,-29.632 -6.821,-46.648l19.364,-134.664l38.286,0l-18.483,123.222c-3.227,22.003 -0.807,38.653 7.261,49.948c8.068,11.296 20.611,16.943 37.627,16.943c10.562,0 21.417,-3.887 32.565,-11.662c11.149,-7.775 23.325,-18.997 36.527,-33.666c-4.108,-46.941 -3.227,-95.203 2.64,-144.785l37.407,0c-4.988,35.793 -6.821,71.439 -5.501,106.939c1.32,35.499 6.968,73.199 16.943,113.099l-39.607,0c-2.641,-12.028 -4.694,-22.15 -6.161,-30.365l-7.922,0c-22.59,24.938 -48.408,37.407 -77.453,37.407Z" style="fill-rule:nonzero;stroke:#000;stroke-width:3.54px;"/><path d="M3151.07,1562.5c-28.751,-0 -53.836,-6.455 -75.253,-19.364l0,-44.007l1.32,1.32c10.856,8.508 21.417,15.109 31.686,19.803c10.268,4.694 24.351,7.041 42.247,7.041c15.256,0 28.018,-2.64 38.287,-7.921c10.268,-5.281 15.403,-12.615 15.403,-22.004c-0,-5.574 -2.641,-10.635 -7.922,-15.182c-5.281,-4.548 -12.909,-9.022 -22.884,-13.423l-12.322,-4.841l-37.847,-14.082c-12.028,-4.401 -21.71,-8.802 -29.045,-13.202c-7.334,-4.401 -13.202,-10.195 -17.603,-17.383c-4.4,-7.188 -6.601,-16.357 -6.601,-27.505c0,-12.322 3.888,-23.251 11.662,-32.786c7.775,-9.535 17.97,-16.943 30.586,-22.224c12.615,-5.281 26.111,-7.921 40.487,-7.921c22.003,-0 44.447,4.987 67.331,14.963l0,41.367c-7.041,-5.575 -16.503,-10.489 -28.385,-14.743c-11.882,-4.254 -24.864,-6.381 -38.946,-6.381c-14.67,0 -25.892,2.42 -33.666,7.261c-7.775,4.841 -11.662,11.662 -11.662,20.464c-0,4.987 2.714,9.682 8.141,14.082c5.428,4.401 12.542,8.215 21.344,11.442l34.766,12.763l2.2,0.88c14.67,5.281 26.478,10.195 35.426,14.742c8.949,4.548 16.577,10.635 22.884,18.263c6.308,7.628 9.462,17.31 9.462,29.045c0,14.963 -4.694,27.652 -14.082,38.067c-9.389,10.415 -21.051,18.263 -34.986,23.544c-13.936,5.281 -27.945,7.922 -42.028,7.922Z" style="fill-rule:nonzero;stroke:#000;stroke-width:3.54px;"/></g></svg>