<?xml version="1.0" encoding="UTF-8" standalone="no"?>
<svg viewBox="370 880 770 2250" version="1.1" xmlns="http://www.w3.org/2000/svg" style="fill-rule:evenodd;clip-rule:evenodd;stroke-linejoin:round;stroke-miterlimit:2;">
<g><g><path d="M631.549,1562.64l147.275,17.748l61.126,6.757l0,-253.438l-40.066,-8.517l-168.335,-0l-15.286,62.614l15.286,174.836Z" style="fill:#ff6361;"/></g><g><path d="M849.997,1333.7l60.897,24.101l15.45,113.755l-9.322,136.034l-30.371,-5.749l-28.809,-9.197l-4.364,-99.75l-3.481,-107.884l0,-51.31Z" style="fill:#ff6361;"/></g><g><path d="M653.504,1312.16l-15.855,-125.81l15.855,-61.776l79.626,9.073l74.971,0l-0,91.838l-5.829,86.675l-38.968,-2.637l-109.8,2.637Z" style="fill:#ff6361;"/></g><g><path d="M821.074,1133.8l-5.24,157.232l-0,23.099l39.567,7.449l8.976,4.36l5.428,-46.536l-11.963,-139.508l-36.768,-6.096Z" style="fill:#ff6361;"/></g><g><path d="M677.216,1111.85l50.89,12.725l20.1,-3.035l-0,-136.212l-7.365,-76.789l-44.023,5.155l-10.415,62.087l-9.187,136.069Z" style="fill:#ff6361;"/></g><g><path d="M753.384,908.54l86.565,22.524l2.87,114.345l-1.249,84.166l-82.344,-8.892l0,-132.84l-5.842,-79.303Z" style="fill:#ff6361;"/></g><g><path d="M577.904,1931.91l98.089,2.105l85.644,-5.257l-0,-150.986l17.187,-175.924l-102.831,-21.46l-98.089,6.14l7.133,205.425l-7.133,139.957Z" style="fill:#ff6361;"/></g><g><path d="M792.932,1601.85l120.937,14.989l36.061,16.131l-0,310.467l-125.533,-0l-45.573,-9.42l-0,-154.154l14.108,-178.013Z" style="fill:#ff6361;"/></g><g><path d="M879.844,2397.83l-29.847,284.652l-12.448,207.383l-0,208.876l-61.468,-8.914l-392.826,-100.282l-0,-307.063l14.015,-187.463l-14.015,-98.128l148.021,5.919l233.312,0l115.256,-4.98Z" style="fill:#ff6361;"/></g><g><path d="M1117.38,2369.83l-211.261,27.055l-33.596,354.414l-14.681,138.019l0,216.394l207.052,-83.115l73.171,-28.992l-20.685,-242.306l7.081,-138.85l-7.081,-242.619Z" style="fill:#ff6361;"/></g><g><path d="M476.024,1947.07l285.613,-3.633l61.157,26.382l-16.84,221.398l4.018,198.229l-48.335,-0l-130.088,-2.322l-98.833,0l-63.593,-4.92l6.901,-179.077l-6.901,-173.051l-8.429,-70.11l15.33,-12.896Z" style="fill:#ff6361;"/></g><g><path d="M842.819,1973.01l155.134,0l35.537,22.496l9.328,184.287l5.949,144.575l-0,31.699l-57.638,6.785l-102.958,12.98l-63.774,6.352l-1.603,-26.117l0,-164.449l20.025,-218.608Z" style="fill:#ff6361;"/></g></g>
</svg>
